# xmcd
#
# Track frame offsets: 
#        150
#        22148
#        39228
#        57005
#        82404
#        102266
#        116758
#        134086
#        152265
#        173830
#        194078
#        213927
#
# Disc length: 3058 seconds
#
# Revision: 2
# Processed by: cddbd v1.5.2PL0 Copyright (c) Steve Scherf et al.
# Submitted via: ExactAudioCopyFreeDBPlugin 1.0
#
DISCID=a90bf00c
DTITLE=试音碟 - DTSES多声道精选
DYEAR=2010
DGENRE=DTSES
TTITLE0=勿忘我
TTITLE1=我有一段情
TTITLE2=天天天蓝
TTITLE3=误了点的幸福列车
TTITLE4=三月里的小雨
TTITLE5=花祭
TTITLE6=回想曲
TTITLE7=春风它吻上我的脸
TTITLE8=夜上海
TTITLE9=不必太在意
TTITLE10=花好月圆
TTITLE11=惜别
EXTD=
EXTT0=
EXTT1=
EXTT2=
EXTT3=
EXTT4=
EXTT5=
EXTT6=
EXTT7=
EXTT8=
EXTT9=
EXTT10=
EXTT11=
PLAYORDER=
